<mxfile host="app.diagrams.net" agent="Mozilla/5.0 (Windows NT 10.0; Win64; x64) AppleWebKit/537.36 (KHTML, like Gecko) Chrome/130.0.0.0 Safari/537.36" version="24.8.4">
  <diagram name="Page-1" id="ulIAU_dWA3H5S0HxLUAw">
    <mxGraphModel dx="1050" dy="522" grid="1" gridSize="10" guides="1" tooltips="1" connect="1" arrows="1" fold="1" page="1" pageScale="1" pageWidth="850" pageHeight="1100" math="0" shadow="0">
      <root>
        <mxCell id="0" />
        <mxCell id="1" parent="0" />
        <mxCell id="-uaoBvbYui1KFP07XOUj-4" value="" style="edgeStyle=orthogonalEdgeStyle;rounded=0;orthogonalLoop=1;jettySize=auto;html=1;" edge="1" parent="1" source="-uaoBvbYui1KFP07XOUj-1" target="-uaoBvbYui1KFP07XOUj-3">
          <mxGeometry relative="1" as="geometry" />
        </mxCell>
        <mxCell id="-uaoBvbYui1KFP07XOUj-6" value="" style="edgeStyle=orthogonalEdgeStyle;rounded=0;orthogonalLoop=1;jettySize=auto;html=1;" edge="1" parent="1" source="-uaoBvbYui1KFP07XOUj-1" target="-uaoBvbYui1KFP07XOUj-5">
          <mxGeometry relative="1" as="geometry" />
        </mxCell>
        <mxCell id="-uaoBvbYui1KFP07XOUj-1" value="SQL" style="shape=cylinder3;whiteSpace=wrap;html=1;boundedLbl=1;backgroundOutline=1;size=15;fillColor=#f8cecc;strokeColor=#b85450;" vertex="1" parent="1">
          <mxGeometry x="220" y="50" width="100" height="60" as="geometry" />
        </mxCell>
        <mxCell id="-uaoBvbYui1KFP07XOUj-8" value="" style="edgeStyle=orthogonalEdgeStyle;rounded=0;orthogonalLoop=1;jettySize=auto;html=1;" edge="1" parent="1" source="-uaoBvbYui1KFP07XOUj-2" target="-uaoBvbYui1KFP07XOUj-7">
          <mxGeometry relative="1" as="geometry" />
        </mxCell>
        <mxCell id="-uaoBvbYui1KFP07XOUj-9" value="" style="edgeStyle=orthogonalEdgeStyle;rounded=0;orthogonalLoop=1;jettySize=auto;html=1;" edge="1" parent="1" source="-uaoBvbYui1KFP07XOUj-2" target="-uaoBvbYui1KFP07XOUj-7">
          <mxGeometry relative="1" as="geometry" />
        </mxCell>
        <mxCell id="-uaoBvbYui1KFP07XOUj-11" value="" style="edgeStyle=orthogonalEdgeStyle;rounded=0;orthogonalLoop=1;jettySize=auto;html=1;" edge="1" parent="1" source="-uaoBvbYui1KFP07XOUj-2" target="-uaoBvbYui1KFP07XOUj-10">
          <mxGeometry relative="1" as="geometry" />
        </mxCell>
        <mxCell id="-uaoBvbYui1KFP07XOUj-2" value="noSQL" style="shape=cylinder3;whiteSpace=wrap;html=1;boundedLbl=1;backgroundOutline=1;size=15;fillColor=#dae8fc;strokeColor=#6c8ebf;" vertex="1" parent="1">
          <mxGeometry x="530" y="50" width="110" height="60" as="geometry" />
        </mxCell>
        <mxCell id="-uaoBvbYui1KFP07XOUj-3" value="User Service" style="rounded=1;whiteSpace=wrap;html=1;fillColor=#f8cecc;strokeColor=#b85450;" vertex="1" parent="1">
          <mxGeometry x="130" y="170" width="120" height="60" as="geometry" />
        </mxCell>
        <mxCell id="-uaoBvbYui1KFP07XOUj-5" value="Transaction Service" style="rounded=1;whiteSpace=wrap;html=1;fillColor=#f8cecc;strokeColor=#b85450;" vertex="1" parent="1">
          <mxGeometry x="300" y="170" width="120" height="60" as="geometry" />
        </mxCell>
        <mxCell id="-uaoBvbYui1KFP07XOUj-7" value="Live Chat Service" style="rounded=1;whiteSpace=wrap;html=1;fillColor=#dae8fc;strokeColor=#6c8ebf;" vertex="1" parent="1">
          <mxGeometry x="450" y="170" width="120" height="60" as="geometry" />
        </mxCell>
        <mxCell id="-uaoBvbYui1KFP07XOUj-10" value="Products &amp;amp; Deals Service" style="rounded=1;whiteSpace=wrap;html=1;fillColor=#dae8fc;strokeColor=#6c8ebf;" vertex="1" parent="1">
          <mxGeometry x="600" y="170" width="120" height="60" as="geometry" />
        </mxCell>
      </root>
    </mxGraphModel>
  </diagram>
</mxfile>
